<svg width="24" height="24" viewBox="0 0 24 24" fill="none" xmlns="http://www.w3.org/2000/svg">
<path d="M3.99996 21.3333C3.99996 22.8 5.19996 24 6.66663 24H17.3333C18.8 24 20 22.8 20 21.3333V8C20 6.53333 18.8 5.33333 17.3333 5.33333H6.66663C5.19996 5.33333 3.99996 6.53333 3.99996 8V21.3333ZM20 1.33333H16.6666L15.72 0.386667C15.48 0.146667 15.1333 0 14.7866 0H9.21329C8.86663 0 8.51996 0.146667 8.27996 0.386667L7.33329 1.33333H3.99996C3.26663 1.33333 2.66663 1.93333 2.66663 2.66667C2.66663 3.4 3.26663 4 3.99996 4H20C20.7333 4 21.3333 3.4 21.3333 2.66667C21.3333 1.93333 20.7333 1.33333 20 1.33333Z" fill="#427287"/>
</svg>
