<svg width="32" height="32" viewBox="0 0 32 32" fill="none" xmlns="http://www.w3.org/2000/svg">
<path d="M2 6C2 4.93913 2.42143 3.92172 3.17157 3.17157C3.92172 2.42143 4.93913 2 6 2H26C27.0609 2 28.0783 2.42143 28.8284 3.17157C29.5786 3.92172 30 4.93913 30 6V26C30 27.0609 29.5786 28.0783 28.8284 28.8284C28.0783 29.5786 27.0609 30 26 30H6C4.93913 30 3.92172 29.5786 3.17157 28.8284C2.42143 28.0783 2 27.0609 2 26V6Z" fill="#97A1FE"/>
<path d="M13.242 23C12.859 23 12.476 22.857 12.183 22.57L6.43904 16.928C6.30031 16.7926 6.19006 16.6309 6.11478 16.4523C6.03951 16.2737 6.00073 16.0818 6.00073 15.888C6.00073 15.6942 6.03951 15.5023 6.11478 15.3237C6.19006 15.1451 6.30031 14.9833 6.43904 14.848C6.72234 14.5718 7.10236 14.4172 7.49804 14.4172C7.89371 14.4172 8.27373 14.5718 8.55704 14.848L13.242 19.449L23.443 9.43099C23.7263 9.15478 24.1064 9.00018 24.502 9.00018C24.8977 9.00018 25.2777 9.15478 25.561 9.43099C25.6999 9.56628 25.8102 9.728 25.8856 9.90662C25.961 10.0852 25.9998 10.2771 25.9998 10.471C25.9998 10.6649 25.961 10.8568 25.8856 11.0354C25.8102 11.214 25.6999 11.3757 25.561 11.511L14.301 22.569C14.0186 22.8466 13.638 23.0014 13.242 23Z" fill="#F4F4F4"/>
</svg>
