<svg width="32" height="32" viewBox="0 0 32 32" fill="none" xmlns="http://www.w3.org/2000/svg">
<path d="M6.66667 2C6.05383 2 5.447 2.12071 4.88081 2.35523C4.31462 2.58975 3.80018 2.93349 3.36684 3.36684C2.49167 4.242 2 5.42899 2 6.66667V25.3333C2 26.571 2.49167 27.758 3.36684 28.6332C3.80018 29.0665 4.31462 29.4102 4.88081 29.6448C5.447 29.8793 6.05383 30 6.66667 30H25.3333C26.571 30 27.758 29.5083 28.6332 28.6332C29.5083 27.758 30 26.571 30 25.3333V6.66667C30 6.05383 29.8793 5.447 29.6448 4.88081C29.4102 4.31462 29.0665 3.80018 28.6332 3.36684C28.1998 2.93349 27.6854 2.58975 27.1192 2.35523C26.553 2.12071 25.9462 2 25.3333 2H6.66667ZM3.86667 6.66667C3.86667 5.92406 4.16167 5.21187 4.68677 4.68677C5.21187 4.16167 5.92406 3.86667 6.66667 3.86667H25.3333C26.0759 3.86667 26.7881 4.16167 27.3132 4.68677C27.8383 5.21187 28.1333 5.92406 28.1333 6.66667V25.3333C28.1333 26.0759 27.8383 26.7881 27.3132 27.3132C26.7881 27.8383 26.0759 28.1333 25.3333 28.1333H6.66667C5.92406 28.1333 5.21187 27.8383 4.68677 27.3132C4.16167 26.7881 3.86667 26.0759 3.86667 25.3333V6.66667Z" fill="#97A1FE" fill-opacity="0.6"/>
</svg>
